<svg>
    <symbol width="29" height="29" viewBox="0 0 29 29" fill="none" xmlns="http://www.w3.org/2000/svg" id="ozon_icon">
        <path d="M10.5 9.16666H21.1667" stroke="white" stroke-linecap="round" stroke-linejoin="round"/>
        <path d="M10.5 14.4974H17.1667" stroke="white" stroke-linecap="round" stroke-linejoin="round"/>
        <path d="M10.5 19.8333H21.1667" stroke="white" stroke-linecap="round" stroke-linejoin="round"/>
        <path fill-rule="evenodd" clip-rule="evenodd" d="M6.49869 10.5C7.16535 10.5 7.83202 9.83334 7.83202 9.16668C7.83202 8.50001 7.16535 7.83334 6.49869 7.83334C5.83202 7.83334 5.16669 8.50001 5.16669 9.16668C5.16669 9.83334 5.83202 10.5 6.49869 10.5ZM6.49869 15.8333C7.16535 15.8333 7.83202 15.1667 7.83202 14.5C7.83202 13.8333 7.16535 13.1667 6.49869 13.1667C5.83202 13.1667 5.16669 13.8333 5.16669 14.5C5.16669 15.1667 5.83202 15.8333 6.49869 15.8333ZM6.49869 21.1667C7.16535 21.1667 7.83202 20.5 7.83202 19.8333C7.83202 19.1667 7.16535 18.5 6.49869 18.5C5.83202 18.5 5.16669 19.1667 5.16669 19.8333C5.16669 20.5 5.83202 21.1667 6.49869 21.1667Z" fill="white"/>
    </symbol>

</svg>

